<?xml version="1.0" encoding="utf-8"?>
<!-- Generator: Adobe Illustrator 19.0.0, SVG Export Plug-In . SVG Version: 6.00 Build 0)  -->
<!DOCTYPE svg PUBLIC "-//W3C//DTD SVG 1.1//EN" "http://www.w3.org/Graphics/SVG/1.1/DTD/svg11.dtd">
<svg version="1.1" id="Layer_1" xmlns="http://www.w3.org/2000/svg" xmlns:xlink="http://www.w3.org/1999/xlink" x="0px" y="0px"
	 viewBox="0 0 792 276.7" enable-background="new 0 0 792 276.7" xml:space="preserve">
<g id="XMLID_89_">
	<g id="XMLID_102_">
		<polygon id="XMLID_75_" fill="#F27C21" points="433.1,154.1 463.5,154.1 463.5,144.7 433.1,144.7 433.1,127.8 467.1,127.8 
			467.1,118.4 422.6,118.4 422.6,180.8 468.2,180.8 468.2,171.3 433.1,171.3 		"/>
		<polygon id="XMLID_74_" fill="#F27C21" points="496.8,170.7 483.6,133.4 472.9,133.4 491.3,180.8 501.9,180.8 520,133.4 
			509.8,133.4 		"/>
		<path id="XMLID_108_" fill="#F27C21" d="M545.1,133c-9,0-13.8,2-20.4,6l4.2,7.1c4.7-3.2,9.4-4.8,14-4.8c7.5,0,11.3,3.6,11.3,9.5
			v1.4h-14.3c-11.4,0.1-17.9,5.6-17.9,14.3c0,8.4,6.4,14.7,16.7,14.7c6.9,0,12.3-2,15.7-6.2v5.8h10.1l-0.1-31.1
			C564.1,139.2,557.3,133,545.1,133z M554.2,164.1c-0.5,5.2-6.1,9-13.5,9c-5.7,0-9.2-2.8-9.2-7c0-4.5,3.1-6.3,9.8-6.3h12.8V164.1z"
			/>
		<rect id="XMLID_71_" x="574.9" y="114.6" fill="#F27C21" width="10.2" height="66.1"/>
		<path id="XMLID_70_" fill="#F27C21" d="M603.6,145.8c0-3.4,2.9-4.7,6.9-4.7c4.2,0,9.4,1.6,13.6,4.2l3.7-7.6
			c-4.3-3-10.6-4.8-16.6-4.8c-9.1,0-17.5,4.1-17.5,13.7c-0.1,17.1,24.9,11.7,24.9,21.4c0,3.6-3.4,5.1-7.8,5.1
			c-5.2,0-11.8-2.2-15.9-5.9l-3.7,7.3c4.7,4.3,12.1,6.6,19.1,6.6c9.5,0,18.2-4.4,18.2-14.1C628.8,149.8,603.6,154.6,603.6,145.8z"/>
		<path id="XMLID_103_" fill="#F47B20" d="M174.9,97.6c-0.2-2.1-1.5-3.9-3.3-4.9c-1.8-1-4-1-5.8,0c-10.2,5.3-19.3,14.1-26.5,22.9
			c-8.3-0.1-7.3-3.1-21.3-5c-19.9-2.7-26.9,19.7-26.9,19.7c-6.4,28.8,15.6,52.9,23.7,56.4c8.1,3.5,8.9-2,15.4-1.6
			c6.6,0.3,7.1,3,11.7,2.3c4.6-0.7,11.3-6.2,19.1-19.2c7.7-13,7.4-22.5,8.2-29.6c0.5-4.4,0.6-13.6-4.9-19.2c3.2-3,5.9-5.2,8.1-6.6
			c2.5-1.7,3.8-4.7,3.5-7.7L174.9,97.6z M169.2,108.2c-8.7,6-26.5,22.2-47.6,63.4l-14.3-35.3c-0.1-0.3,0-0.5,0-0.6
			c0.1-0.1,0.2-0.3,0.4-0.4l9.6-2.5l0.2-0.1c0.6-0.2,1.1,0,1.4,0.1c0.3,0.1,0.7,0.5,0.8,1.1l3.5,16.6l3.5-6.8
			c0.2-0.3,18.1-34.2,41.5-46.2c0.3-0.2,0.6-0.1,0.7,0c0.1,0.1,0.4,0.3,0.4,0.6l0.9,7.4C170.4,106.7,170,107.7,169.2,108.2z"/>
	</g>
	<g id="XMLID_90_">
		<path id="XMLID_99_" fill="#221F1F" d="M220.5,118.1c-18.6,0-33.1,13.5-33.1,31.4c0,17.8,14.4,31.6,33.1,31.6
			c18.6,0,33.1-13.8,33.1-31.6C253.5,131.8,239.1,118.1,220.5,118.1z M220.6,171.8c-12.2,0-22.5-9.8-22.5-22.2
			c0-12.4,10.2-22,22.5-22c12.2,0,22.2,9.6,22.2,22C242.7,162,232.8,171.8,220.6,171.8z"/>
		<path id="XMLID_96_" fill="#221F1F" d="M286.1,133c-7.4,0-13.1,3-16.6,8.6v-8.2h-10.2V198h10.2v-25.5c3.5,5.5,9.2,8.6,16.7,8.6
			c13.5,0,22.5-9.7,22.5-23.9C308.7,142.8,299.5,133,286.1,133z M283.9,172.4c-8.5,0-14.4-6.3-14.4-15.5c0-8.9,6-15.3,14.4-15.3
			s14.4,6.5,14.4,15.3C298.3,166,292.4,172.4,283.9,172.4z"/>
		<path id="XMLID_93_" fill="#221F1F" d="M337.1,133c-14.1,0.1-24,9.8-24,24.1c0,14.3,9.6,24,24.2,24c8.2,0,15-2.9,19.6-8l-5.4-5.8
			c-3.5,3.6-8.2,5.5-13.4,5.5c-7.5,0-13.1-4.5-14.7-11.8h35.8C360.5,143.9,353.8,133,337.1,133z M323.3,153.5
			c1.2-7.6,6.4-12.3,13.9-12.3c7.8,0,12.8,4.6,13.2,12.3H323.3z"/>
		<path id="XMLID_61_" fill="#221F1F" d="M394.1,133c-8,0-14.1,2.9-17.5,9.4v-9.1h-10.2v47.4h10.2v-25.2c0.7-7.4,5.6-12.8,13.5-12.9
			c7.1,0,11.4,4.4,11.4,11.5v26.6h10.2v-29.5C411.8,139.9,405.2,133,394.1,133z"/>
		<path id="XMLID_60_" fill="#221F1F" d="M137.8,112.3c0,0,5.4-15.3-18.4-25.9C119.4,86.4,115.8,111.8,137.8,112.3z"/>
	</g>
</g>
<g id="XMLID_77_">
	<path id="XMLID_85_" d="M650,114.6c4.5,0,7.4,2,7.4,5.1c0,2.1-1.3,3.8-3.5,4.5c2.5,0.5,4.2,2.5,4.2,5.1c0,3.4-3,5.6-7.8,5.6h-9.9
		v-20.2H650z M645.5,122.7h4.2c1.5,0,2.5-0.8,2.5-2.1c0-1.3-1-2.1-2.5-2.1h-4.2V122.7z M645.5,130.9h4.2c1.9,0,3.1-0.8,3.1-2.3
		c0-1.4-1.2-2.2-3.1-2.2h-4.2V130.9z"/>
	<path id="XMLID_83_" d="M666.2,118.6v4h9.7v4h-9.7v4.1h11v4h-16.2v-20.2h15.8v4H666.2z"/>
	<path id="XMLID_81_" d="M690,118.7v16.1h-5.1v-16.1h-6v-4.2h17.3v4.2H690z"/>
	<path id="XMLID_78_" d="M700.7,131.1l-1.5,3.7h-5.3l8.7-20.2h5.3l8.5,20.2H711l-1.4-3.7H700.7z M705.1,119.7l-2.9,7.5h5.8
		L705.1,119.7z"/>
</g>
</svg>
